<?xml version="1.0" encoding="UTF-8"?>
<svg id="Calque_1" xmlns="http://www.w3.org/2000/svg" viewBox="0 0 196.1 46.87">
    <defs>
        <style>.cls-1{fill:#1d1d1b;}.cls-2{fill:url(#Dégradé_sans_nom_3);opacity:.51;}.cls-3{fill:#fff;}.cls-4{fill:#c2a300;}.cls-5{fill:#ecdf8d;}</style>
        <linearGradient id="Dégradé_sans_nom_3" x1="-346.07" y1="431.43" x2="-303.86" y2="431.43" gradientTransform="translate(555.96 -54.17) rotate(45)" gradientUnits="userSpaceOnUse">
            <stop offset=".09" stop-color="#fff"/>
            <stop offset=".4" stop-color="#fff" stop-opacity="0"/>
        </linearGradient>
    </defs>
    <path class="cls-1"
          d="M64.27,34.29c-1.44,1.44-3.71,2.32-6.34,2.32-2.78,0-4.95-.72-6.85-2.99v13.24h-5.26V10.18h5.15v2.78c1.96-2.37,4.07-3.09,6.9-3.09,2.63,0,4.95.88,6.39,2.32,2.63,2.63,2.94,7.06,2.94,11.03s-.31,8.45-2.94,11.08ZM56.54,14.56c-4.74,0-5.46,4.02-5.46,8.66s.72,8.71,5.46,8.71,5.41-4.07,5.41-8.71-.67-8.66-5.41-8.66Z"/>
    <path class="cls-1"
          d="M74.06,24.76c0,4.48,2.37,7.32,6.65,7.32,2.94,0,4.48-.82,6.34-2.68l3.35,3.14c-2.68,2.68-5.2,4.07-9.79,4.07-6.54,0-11.75-3.45-11.75-13.4,0-8.45,4.38-13.34,11.08-13.34s11.08,5.15,11.08,12.57v2.32h-16.95ZM85.08,17.55c-.82-1.96-2.68-3.3-5.15-3.3s-4.38,1.34-5.2,3.3c-.52,1.18-.62,1.96-.67,3.55h11.75c-.05-1.6-.21-2.37-.72-3.55Z"/>
    <path class="cls-1"
          d="M109.76,36.3v-15.92c0-4.07-2.32-5.82-5.26-5.82s-5.41,1.8-5.41,5.82v15.92h-5.26V10.18h5.15v2.63c1.8-1.96,4.33-2.94,6.96-2.94s4.9.88,6.44,2.37c2.01,1.96,2.63,4.43,2.63,7.37v16.69h-5.26Z"/>
    <path class="cls-1"
          d="M150.82,36.3v-15.92c0-4.07-2.32-5.82-5.26-5.82s-5.41,1.8-5.41,5.56v16.18h-5.26v-15.92c0-4.07-2.32-5.82-5.26-5.82s-5.41,1.8-5.41,5.82v15.92h-5.26V10.18h5.15v2.63c1.75-1.91,4.33-2.94,6.96-2.94,3.25,0,5.77,1.29,7.42,3.81,2.11-2.58,4.74-3.81,8.19-3.81,2.68,0,5.05.88,6.6,2.37,2.01,1.96,2.78,4.43,2.78,7.37v16.69h-5.26Z"/>
    <path class="cls-1"
          d="M175.8,36.3v-2.63c-1.8,1.96-4.33,2.94-6.96,2.94s-4.89-.88-6.44-2.37c-2.01-1.96-2.63-4.43-2.63-7.37V10.18h5.26v15.92c0,4.07,2.32,5.82,5.26,5.82s5.41-1.8,5.41-5.82v-15.92h5.26v26.12h-5.15Z"/>
    <path class="cls-1" d="M192.96,36.3c-4.89,0-7.16-3.5-7.16-7.27v-14.38h-2.99v-4.02h2.99V2.71h5.26v7.93h5.05v4.02h-5.05v14.12c0,1.91.93,3.04,2.89,3.04h2.16v4.48h-3.14Z"/>
    <circle class="cls-4" cx="21.1" cy="21.1" r="21.1"/>
    <path class="cls-3"
          d="M21.1,36.17c-8.19,0-14.86-6.67-14.86-14.86,0-6,3.58-11.38,9.12-13.7.03-.01.06-.02.1-.02.05,0,.1.01.14.04.07.05.11.12.11.21v5.32c0,.08-.04.16-.11.21-2.61,1.81-4.17,4.78-4.17,7.94,0,5.33,4.34,9.67,9.67,9.67s9.67-4.34,9.67-9.67c0-3.16-1.56-6.13-4.17-7.94-.07-.05-.11-.12-.11-.21v-5.32c0-.08.04-.16.11-.21.04-.03.09-.04.14-.04.03,0,.07,0,.1.02,5.54,2.32,9.12,7.7,9.12,13.7,0,8.19-6.67,14.86-14.86,14.86Z"/>
    <path class="cls-5"
          d="M26.75,7.84c5.26,2.21,8.96,7.41,8.96,13.47,0,8.07-6.54,14.61-14.61,14.61s-14.61-6.54-14.61-14.61c0-6.07,3.7-11.27,8.96-13.47v5.32c-2.58,1.79-4.27,4.77-4.27,8.15,0,5.48,4.44,9.92,9.92,9.92s9.92-4.44,9.92-9.92c0-3.38-1.69-6.36-4.27-8.15v-5.32M26.75,7.34c-.1,0-.19.03-.28.08-.14.09-.22.25-.22.42v5.32c0,.16.08.32.21.41,2.54,1.76,4.06,4.66,4.06,7.74,0,5.19-4.22,9.42-9.42,9.42s-9.42-4.22-9.42-9.42c0-3.08,1.52-5.97,4.06-7.74.13-.09.21-.25.21-.41v-5.32c0-.17-.08-.32-.22-.42-.08-.06-.18-.08-.28-.08-.07,0-.13.01-.19.04-5.63,2.36-9.27,7.83-9.27,13.94,0,8.33,6.78,15.11,15.11,15.11s15.11-6.78,15.11-15.11c0-6.1-3.64-11.57-9.27-13.94-.06-.03-.13-.04-.19-.04h0Z"/>
    <rect class="cls-3" x="18.02" y="4.55" width="6.17" height="14.9" rx="2.43" ry="2.43"/>
    <path class="cls-5"
          d="M21.76,4.8c1.2,0,2.18.98,2.18,2.18v10.04c0,1.2-.98,2.18-2.18,2.18h-1.32c-1.2,0-2.18-.98-2.18-2.18V6.98c0-1.2.98-2.18,2.18-2.18h1.32M21.76,4.3h-1.32c-1.48,0-2.68,1.2-2.68,2.68v10.04c0,1.48,1.2,2.68,2.68,2.68h1.32c1.48,0,2.68-1.2,2.68-2.68V6.98c0-1.48-1.2-2.68-2.68-2.68h0Z"/>
    <circle class="cls-2" cx="21.1" cy="21.1" r="21.1"/>
</svg>